<svg width="102" height="19" viewBox="0 0 102 19" fill="none" xmlns="http://www.w3.org/2000/svg">
<path d="M0.0742188 1.41797C2.18359 1.41797 3.85938 1.41797 5.10156 1.41797C6.35156 1.41797 7.10938 1.42187 7.375 1.42969C8.53125 1.48438 9.34766 1.62109 9.82422 1.83984C10.3008 2.05078 10.6797 2.28906 10.9609 2.55469C11.5625 3.14844 11.8633 3.86719 11.8633 4.71094C11.8633 5.54688 11.5703 6.28125 10.9844 6.91406C10.8047 7.10938 10.5977 7.27734 10.3633 7.41797C11.6367 7.65234 12.6797 8.1875 13.4922 9.02344C14.375 9.92969 14.8164 11.0352 14.8164 12.3398C14.8164 13.668 14.4062 14.8125 13.5859 15.7734C12.4375 17.1016 10.6641 17.8281 8.26562 17.9531C7.65625 17.9844 7.05469 18 6.46094 18H0.0742188V1.41797ZM7.76172 7.18359L8.35938 7.25391H8.54688C9.16406 7.25391 9.69922 7.02734 10.1523 6.57422C10.6367 6.08984 10.8789 5.49609 10.8789 4.79297C10.8789 3.93359 10.5078 3.27344 9.76562 2.8125C9.39062 2.57812 9.01562 2.44141 8.64062 2.40234C8.27344 2.35547 7.98438 2.32422 7.77344 2.30859C7.33594 2.27734 6.76172 2.26172 6.05078 2.26172V17.1328H7.35156C8.67969 17.1328 9.76172 16.9688 10.5977 16.6406C11.5977 16.2969 12.3906 15.7422 12.9766 14.9766C13.5312 14.25 13.8086 13.4883 13.8086 12.6914C13.8086 11.8945 13.6914 11.2227 13.457 10.6758C13.2227 10.1289 12.8828 9.66406 12.4375 9.28125C11.5312 8.49219 10.2695 8.09766 8.65234 8.09766L7.84375 8.16797C7.59375 8.16797 7.41016 8.11719 7.29297 8.01562C7.17578 7.91406 7.11719 7.79688 7.11719 7.66406C7.11719 7.34375 7.33203 7.18359 7.76172 7.18359ZM25.5977 12.3164L26.5586 12.3867C27.9336 12.3867 29.1016 11.9062 30.0625 10.9453C31.0234 9.98438 31.5039 8.78906 31.5039 7.35938C31.5039 5.48438 30.6797 4.09375 29.0312 3.1875C28.125 2.6875 27.1562 2.39844 26.125 2.32031C25.6875 2.28125 25.2812 2.26172 24.9062 2.26172H24.1094C23.9453 2.26172 23.8008 2.26562 23.6758 2.27344V18H17.6992V1.41797C19.5273 1.41797 21.0078 1.41797 22.1406 1.41797C23.2734 1.41797 24.0117 1.42187 24.3555 1.42969C24.6992 1.4375 25.0039 1.44922 25.2695 1.46484C25.543 1.47266 25.7969 1.48438 26.0312 1.5C26.375 1.53125 26.8594 1.60547 27.4844 1.72266C28.1172 1.83984 28.7422 2.0625 29.3594 2.39062C29.9766 2.71875 30.5078 3.125 30.9531 3.60938C31.9141 4.64062 32.3945 5.86719 32.3945 7.28906C32.3945 8.69531 31.9492 9.9375 31.0586 11.0156C30.1445 12.1172 28.9258 12.8281 27.4023 13.1484C28.1289 15.3984 29.0547 16.7422 30.1797 17.1797C30.5234 17.3125 30.8672 17.3789 31.2109 17.3789L32.1367 17.1562C32.4258 17.1562 32.5703 17.3047 32.5703 17.6016C32.5703 18.0156 32.0859 18.2227 31.1172 18.2227C30.4141 18.2227 29.7695 18.0273 29.1836 17.6367C28.2695 17.0898 27.4922 16.0273 26.8516 14.4492L26.5117 13.6172C26.457 13.4844 26.4062 13.4023 26.3594 13.3711C26.3203 13.3398 26.2461 13.3242 26.1367 13.3242C26.0352 13.3242 25.9453 13.332 25.8672 13.3477L25.5859 13.3594C25.2734 13.3594 25.0586 13.3008 24.9414 13.1836C24.832 13.0664 24.7773 12.9453 24.7773 12.8203C24.7773 12.4844 25.0508 12.3164 25.5977 12.3164ZM45.5781 16.9922C45.9766 16.9922 46.1758 17.1484 46.1758 17.4609C46.1758 17.6016 46.0898 17.7266 45.918 17.8359C45.7461 17.9453 45.4492 18 45.0273 18H35.1016V1.41797C38.1797 1.41797 41.2578 1.41797 44.3359 1.41797L45.2969 1.38281C45.8828 1.38281 46.1758 1.55469 46.1758 1.89844C46.1758 2.03125 46.125 2.15625 46.0234 2.27344C45.9297 2.38281 45.8203 2.4375 45.6953 2.4375C45.4922 2.4375 45.2773 2.41406 45.0508 2.36719C44.7148 2.29688 44.2539 2.26172 43.668 2.26172H41.0781V5.83594H43.2109C43.2109 5.83594 43.6914 5.81641 44.6523 5.77734C44.8242 5.77734 44.9688 5.82031 45.0859 5.90625C45.2109 5.98438 45.2734 6.09766 45.2734 6.24609C45.2734 6.57422 45.0547 6.73828 44.6172 6.73828L44.1133 6.72656C43.8555 6.70312 43.6406 6.69141 43.4688 6.69141H41.0781V17.1445H43.668C44.2461 17.1445 44.6562 17.1211 44.8984 17.0742C45.1875 17.0195 45.4141 16.9922 45.5781 16.9922ZM69.8711 1.80469C69.8711 1.92188 69.8438 2.06641 69.7891 2.23828C69.6016 2.74609 69.4336 3.1875 69.2852 3.5625L63.0742 18.6445L58.6562 8.77734L54.0742 18.6445L47.1367 1.41797H53.5586L56.8516 10.1953L61.3164 0.667969L65.4766 10.1719L68.4062 3.29297C68.5078 3.03516 68.5938 2.78125 68.6641 2.53125L68.8633 1.81641C68.9492 1.46484 69.1367 1.28906 69.4258 1.28906C69.7227 1.28906 69.8711 1.46094 69.8711 1.80469ZM82.6094 16.9922C83.0078 16.9922 83.207 17.1484 83.207 17.4609C83.207 17.6016 83.1211 17.7266 82.9492 17.8359C82.7773 17.9453 82.4805 18 82.0586 18H72.1328V1.41797C75.2109 1.41797 78.2891 1.41797 81.3672 1.41797L82.3281 1.38281C82.9141 1.38281 83.207 1.55469 83.207 1.89844C83.207 2.03125 83.1562 2.15625 83.0547 2.27344C82.9609 2.38281 82.8516 2.4375 82.7266 2.4375C82.5234 2.4375 82.3086 2.41406 82.082 2.36719C81.7461 2.29688 81.2852 2.26172 80.6992 2.26172H78.1094V5.83594H80.2422C80.2422 5.83594 80.7227 5.81641 81.6836 5.77734C81.8555 5.77734 82 5.82031 82.1172 5.90625C82.2422 5.98438 82.3047 6.09766 82.3047 6.24609C82.3047 6.57422 82.0859 6.73828 81.6484 6.73828L81.1445 6.72656C80.8867 6.70312 80.6719 6.69141 80.5 6.69141H78.1094V17.1445H80.6992C81.2773 17.1445 81.6875 17.1211 81.9297 17.0742C82.2188 17.0195 82.4453 16.9922 82.6094 16.9922ZM86.3477 1.41797H91.2227C93.4961 1.41797 95.1641 1.57813 96.2266 1.89844C97.4375 2.27344 98.3711 2.75391 99.0273 3.33984C99.6914 3.92578 100.211 4.53125 100.586 5.15625C101.352 6.42969 101.734 7.875 101.734 9.49219C101.734 12.0391 100.82 14.1016 98.9922 15.6797C97.6953 16.8125 96.168 17.5117 94.4102 17.7773C93.4336 17.9258 92.0664 18 90.3086 18H86.3477V1.41797ZM92.3242 17.0273C92.4492 17.0352 92.5625 17.0391 92.6641 17.0391H92.9336C95.0508 17.0391 96.8594 16.3789 98.3594 15.0586C99.9453 13.668 100.738 11.8203 100.738 9.51562C100.738 8.0625 100.391 6.75391 99.6953 5.58984C98.6875 3.89453 97.0938 2.86719 94.9141 2.50781C94.2031 2.39062 93.3398 2.32422 92.3242 2.30859V17.0273Z" fill="#FBFAF8"/>
</svg>
